<svg xmlns="http://www.w3.org/2000/svg" xmlns:xlink="http://www.w3.org/1999/xlink" preserveAspectRatio="xMidYMid" width="33" height="33" viewBox="0 0 33 33">
  <defs>
    <style>
      .cls-1 {
        fill: red;
        fill-rule: evenodd;
      }
    </style>
  </defs>
  <path d="M31.167,33.000 C13.933,33.000 0.000,19.067 0.000,1.833 C0.000,0.733 0.733,-0.000 1.833,-0.000 L8.250,-0.000 C9.350,-0.000 10.083,0.733 10.083,1.833 C10.083,4.033 10.450,6.233 11.000,8.250 C11.367,8.800 11.183,9.533 10.633,10.083 L6.600,14.117 C9.350,19.250 13.567,23.650 18.700,26.217 L22.733,22.183 C23.283,21.817 24.017,21.633 24.567,21.817 C26.767,22.550 28.967,22.917 31.167,22.917 C32.267,22.917 33.000,23.650 33.000,24.750 L33.000,31.167 C33.000,32.267 32.267,33.000 31.167,33.000 ZM25.500,-0.000 L33.000,13.007 L17.999,13.007 L25.500,-0.000 ZM24.818,11.953 L26.181,11.953 L26.181,9.584 L24.818,9.584 L24.818,11.953 ZM26.181,8.215 L26.181,4.477 L24.818,4.477 L24.818,8.215 L26.181,8.215 Z" class="cls-1"/>
</svg>
